<?xml version="1.0"?>
<svg xmlns="http://www.w3.org/2000/svg" xmlns:xlink="http://www.w3.org/1999/xlink" version="1.1" id="Layer_1" x="0px" y="0px" viewBox="0 0 496 496" style="enable-background:new 0 0 496 496;" xml:space="preserve" width="512px" height="512px" class=""><g><path style="fill:#FFDDB3" d="M248,92c-13.6,0-24-10.4-24-24V24c0-13.6,10.4-24,24-24s24,10.4,24,24v44C272,80.8,261.6,92,248,92z" data-original="#76FFE5" class="" data-old_color="#76FFE5"/><path style="fill:#FEB154" d="M248,496c-13.6,0-24-10.4-24-24v-44c0-13.6,10.4-24,24-24s24,10.4,24,24v44  C272,485.6,261.6,496,248,496z" data-original="#0DBFBA" class="" data-old_color="#0DBFBA"/><path style="fill:#FFE6C7" d="M157.6,116c-8,0-16-4-20.8-12l-21.6-37.6c-6.4-11.2-2.4-26.4,8.8-32.8s26.4-2.4,32.8,8.8L178.4,80  c6.4,11.2,2.4,26.4-8.8,32.8C166.4,114.4,161.6,116,157.6,116z" data-original="#BBFFF2" class="" data-old_color="#BBFFF2"/><path style="fill:#FFBA66" d="M360,465.6c-8,0-16-4-20.8-12L317.6,416c-6.4-11.2-2.4-26.4,8.8-32.8c11.2-6.4,26.4-2.4,32.8,8.8  l21.6,37.6c6.4,11.2,2.4,26.4-8.8,32.8C368,464.8,364,465.6,360,465.6z" data-original="#1BCEB8" class="" data-old_color="#1BCEB8"/><path style="fill:#FFECD5" d="M92,181.6c-4,0-8-0.8-12-3.2l-37.6-21.6c-11.2-6.4-15.2-21.6-8.8-32.8s21.6-15.2,32.8-8.8l37.6,21.6  c11.2,6.4,15.2,21.6,8.8,32.8C108,177.6,100,181.6,92,181.6z" data-original="#E1FFF9" class="" data-old_color="#E1FFF9"/><path style="fill:#FFBF71" d="M442.4,384c-4,0-8-0.8-12-3.2L392,359.2c-11.2-6.4-15.2-21.6-8.8-32.8c6.4-11.2,21.6-15.2,32.8-8.8  l37.6,21.6c11.2,6.4,15.2,21.6,8.8,32.8C458.4,380,450.4,384,442.4,384z" data-original="#26DBC0" class="" data-old_color="#26DBC0"/><path style="fill:#FFF8F0" d="M68,272H24c-13.6,0-24-10.4-24-24s10.4-24,24-24h44c13.6,0,24,10.4,24,24S80.8,272,68,272z" data-original="#F3FFFD" class="active-path" data-old_color="#F3FFFD"/><path style="fill:#FFC57F" d="M472,272h-44c-13.6,0-24-10.4-24-24s10.4-24,24-24h44c13.6,0,24,10.4,24,24S485.6,272,472,272z" data-original="#2EE5C6" class="" data-old_color="#2EE5C6"/><path style="fill:#FBA134" d="M53.6,384c-8,0-16-4-20.8-12c-6.4-11.2-2.4-26.4,8.8-32.8l37.6-21.6c11.2-6.4,26.4-2.4,32.8,8.8  c6.4,11.2,2.4,26.4-8.8,32.8l-37.6,21.6C62.4,383.2,58.4,384,53.6,384z" data-original="#11AEBA" class="" data-old_color="#11AEBA"/><path style="fill:#FFCD90" d="M404,181.6c-8,0-16-4-20.8-12c-6.4-11.2-2.4-26.4,8.8-32.8l37.6-21.6c11.2-6.4,26.4-2.4,32.8,8.8  s2.4,26.4-8.8,32.8L416,178.4C412,180.8,408,181.6,404,181.6z" data-original="#3BEDCB" class="" data-old_color="#3BEDCB"/><path style="fill:#FFAB45" d="M136,465.6c-4,0-8-0.8-12-3.2c-11.2-6.4-15.2-21.6-8.8-32.8l21.6-37.6c6.4-11.2,21.6-15.2,32.8-8.8  c11.2,6.4,15.2,21.6,8.8,32.8l-21.6,37.6C152,461.6,144,465.6,136,465.6z" data-original="#0FB8BC" class="" data-old_color="#0FB8BC"/><path style="fill:#FFD5A1" d="M338.4,116c-4,0-8-0.8-12-3.2c-11.2-6.4-15.2-21.6-8.8-32.8l21.6-37.6c6.4-11.2,21.6-15.2,32.8-8.8  c11.2,6.4,15.2,21.6,8.8,32.8L359.2,104C354.4,111.2,346.4,116,338.4,116z" data-original="#57F7D8" class="" data-old_color="#57F7D8"/></g> </svg>
