<?xml version="1.0" encoding="UTF-8"?>
<svg xmlns="http://www.w3.org/2000/svg" xmlns:xlink="http://www.w3.org/1999/xlink" width="48pt" height="48pt" viewBox="0 0 48 48" version="1.1">
<g id="surface412911">
<path style=" stroke:none;fill-rule:nonzero;fill:rgb(98.431373%,63.137255%,20.392157%);fill-opacity:1;" d="M 42.199219 22.101562 L 25.898438 5.800781 C 25.398438 5.300781 24.699219 5 24 5 C 23.300781 5 22.601562 5.300781 22.101562 5.800781 L 18.601562 9.300781 L 22.699219 13.398438 C 23.101562 13.199219 23.5 13.101562 24 13.101562 C 25.699219 13.101562 27 14.398438 27 16.101562 C 27 16.601562 26.898438 17 26.699219 17.398438 L 30.699219 21.398438 C 31.101562 21.199219 31.5 21.101562 32 21.101562 C 33.699219 21.101562 35 22.398438 35 24.101562 C 35 25.800781 33.699219 27.101562 32 27.101562 C 30.300781 27.101562 29 25.800781 29 24.101562 C 29 23.601562 29.101562 23.199219 29.300781 22.800781 L 25.300781 18.800781 C 25.199219 18.800781 25.101562 18.898438 25 18.898438 L 25 29.300781 C 26.199219 29.699219 27 30.800781 27 32.101562 C 27 33.800781 25.699219 35.101562 24 35.101562 C 22.300781 35.101562 21 33.800781 21 32.101562 C 21 30.800781 21.800781 29.699219 23 29.300781 L 23 18.800781 C 21.800781 18.398438 21 17.300781 21 16 C 21 15.5 21.101562 15.101562 21.300781 14.699219 L 17.199219 10.601562 L 5.800781 22.101562 C 5.300781 22.601562 5 23.300781 5 24 C 5 24.699219 5.300781 25.398438 5.800781 25.898438 L 22.101562 42.199219 C 22.601562 42.699219 23.300781 43 24 43 C 24.699219 43 25.398438 42.699219 25.898438 42.199219 L 42.199219 25.898438 C 42.699219 25.398438 43 24.699219 43 24 C 43 23.300781 42.699219 22.601562 42.199219 22.101562 Z M 42.199219 22.101562 "/>
</g>
</svg>
