<?xml version="1.0"?>
<svg xmlns="http://www.w3.org/2000/svg" height="512px" viewBox="0 0 256 256" width="512px" class=""><g><g fill="#846f75"><path d="m50.066 123.9c.072.006.142.009.212.009a2.5 2.5 0 0 0 2.489-2.291 75.794 75.794 0 0 1 55.006-66.367 2.5 2.5 0 1 0 -1.341-4.816 80.809 80.809 0 0 0 -58.648 70.765 2.5 2.5 0 0 0 2.282 2.7z" data-original="#846F75" class="active-path" style="fill:#FBA134" data-old_color="#846F75"/><path d="m134.307 52.761a75.781 75.781 0 0 1 66.442 55.01 2.5 2.5 0 1 0 4.816-1.341 80.8 80.8 0 0 0 -70.844-58.652 2.5 2.5 0 1 0 -.414 4.983z" data-original="#846F75" class="active-path" style="fill:#FBA134" data-old_color="#846F75"/><path d="m62.855 121.149a2.5 2.5 0 0 0 2.227 2.747 2.587 2.587 0 0 0 .263.013 2.5 2.5 0 0 0 2.483-2.24 60.9 60.9 0 0 1 44.131-52.011 2.5 2.5 0 1 0 -1.326-4.82 65.93 65.93 0 0 0 -47.778 56.311z" data-original="#846F75" class="active-path" style="fill:#FBA134" data-old_color="#846F75"/><path d="m122.08 188.213a60.891 60.891 0 0 1 -52.332-43.846 2.5 2.5 0 1 0 -4.812 1.354 65.919 65.919 0 0 0 56.66 47.468c.082.008.164.012.245.012a2.5 2.5 0 0 0 .239-4.988z" data-original="#846F75" class="active-path" style="fill:#FBA134" data-old_color="#846F75"/><path d="m186.343 111.959a2.5 2.5 0 0 0 2.409 1.838 2.465 2.465 0 0 0 .664-.091 2.5 2.5 0 0 0 1.747-3.073 65.878 65.878 0 0 0 -56.663-47.813 2.5 2.5 0 0 0 -.492 4.977 60.846 60.846 0 0 1 52.335 44.162z" data-original="#846F75" class="active-path" style="fill:#FBA134" data-old_color="#846F75"/><path d="m121.7 203.24a75.779 75.779 0 0 1 -66.451-55.013 2.5 2.5 0 1 0 -4.816 1.341 80.458 80.458 0 0 0 24.567 38.932h-43.75a10 10 0 0 0 0 20h89.833a3.263 3.263 0 0 0 2.9-2.562 2.5 2.5 0 0 0 -2.283-2.698zm-95.45-4.74a5.006 5.006 0 0 1 5-5h50.05a80.808 80.808 0 0 0 18.818 10h-68.868a5.006 5.006 0 0 1 -5-5z" data-original="#846F75" class="active-path" style="fill:#FBA134" data-old_color="#846F75"/><path d="m231.926 191.535a9.921 9.921 0 0 0 -7.176-3.035h-43.736a80.629 80.629 0 0 0 27.175-53.4 2.5 2.5 0 0 0 -4.98-.438 75.683 75.683 0 0 1 -29.537 53.419 2.524 2.524 0 0 0 -.421.418h-20.14a65.478 65.478 0 0 0 40.043-53.739 2.5 2.5 0 0 0 -4.974-.512 60.488 60.488 0 0 1 -41.832 51.408 4.019 4.019 0 0 0 1.235 7.843h77.167a5 5 0 0 1 5 5.155 5.2 5.2 0 0 1 -5.31 4.845h-78.385a2.5 2.5 0 0 0 0 5h78.382a10.236 10.236 0 0 0 10.308-9.7 9.931 9.931 0 0 0 -2.819-7.264z" data-original="#846F75" class="active-path" style="fill:#FBA134" data-old_color="#846F75"/></g><path d="m136.933 83.313a7.451 7.451 0 0 1 -5.3-2.2l-17.869-17.861a7.5 7.5 0 0 1 0-10.606l17.865-17.865a7.5 7.5 0 1 1 10.606 10.607l-12.561 12.561 12.561 12.562a7.5 7.5 0 0 1 -5.3 12.8zm0-45.729a2.488 2.488 0 0 0 -1.769.732l-17.864 17.866a2.5 2.5 0 0 0 0 3.535l17.865 17.864a2.558 2.558 0 0 0 3.535 0 2.5 2.5 0 0 0 0-3.534l-14.329-14.33a2.5 2.5 0 0 1 0-3.535l14.329-14.33a2.5 2.5 0 0 0 -1.767-4.268z" fill="#65c1d6" data-original="#65C1D6" class="" style="fill:#1B1B1B" data-old_color="#65c1d6"/><path d="m119.067 223.416a7.5 7.5 0 0 1 -5.3-12.8l12.561-12.561-12.561-12.562a7.5 7.5 0 1 1 10.606-10.605l17.865 17.864a7.5 7.5 0 0 1 0 10.606l-17.865 17.865a7.451 7.451 0 0 1 -5.306 2.193zm0-45.729a2.5 2.5 0 0 0 -1.767 4.266l14.329 14.33a2.5 2.5 0 0 1 0 3.535l-14.329 14.33a2.5 2.5 0 0 0 0 3.535 2.557 2.557 0 0 0 3.536 0l17.864-17.865a2.5 2.5 0 0 0 0-3.535l-17.865-17.864a2.484 2.484 0 0 0 -1.768-.732z" fill="#65c1d6" data-original="#65C1D6" class="" style="fill:#1B1B1B" data-old_color="#65c1d6"/><path d="m57.949 144.433a7.452 7.452 0 0 1 -5.3-2.2l-17.868-17.862a7.5 7.5 0 1 1 10.607-10.606l12.561 12.561 12.562-12.561a7.5 7.5 0 1 1 10.605 10.606l-17.864 17.865a7.451 7.451 0 0 1 -5.303 2.197zm-17.865-27.866a2.5 2.5 0 0 0 -1.768 4.269l17.866 17.864a2.56 2.56 0 0 0 3.535 0l17.864-17.865a2.5 2.5 0 0 0 0-3.535 2.554 2.554 0 0 0 -3.534 0l-14.33 14.329a2.5 2.5 0 0 1 -3.535 0l-14.33-14.329a2.483 2.483 0 0 0 -1.768-.733z" fill="#65c1d6" data-original="#65C1D6" class="" style="fill:#1B1B1B" data-old_color="#65c1d6"/><path d="m215.916 144.433a7.452 7.452 0 0 1 -5.3-2.2l-12.561-12.561-12.562 12.561a7.5 7.5 0 1 1 -10.605-10.606l17.864-17.865a7.5 7.5 0 0 1 10.606 0l17.865 17.865a7.5 7.5 0 0 1 -5.3 12.8zm-17.865-20.794a2.492 2.492 0 0 1 1.767.732l14.33 14.329a2.556 2.556 0 0 0 3.535 0 2.5 2.5 0 0 0 0-3.536l-17.865-17.864a2.56 2.56 0 0 0 -3.535 0l-17.864 17.865a2.5 2.5 0 0 0 0 3.535 2.554 2.554 0 0 0 3.534 0l14.33-14.329a2.493 2.493 0 0 1 1.768-.732z" fill="#65c1d6" data-original="#65C1D6" class="" style="fill:#1B1B1B" data-old_color="#65c1d6"/></g> </svg>
