<?xml version="1.0"?>
<svg xmlns="http://www.w3.org/2000/svg" xmlns:xlink="http://www.w3.org/1999/xlink" version="1.1" id="Layer_1" x="0px" y="0px" viewBox="0 0 512 512" style="enable-background:new 0 0 512 512;" xml:space="preserve" width="512px" height="512px" class=""><g><g>
	<path style="fill:#D93A2C" d="M0,385.379c0,21.177,17.167,38.345,38.345,38.345h435.31c21.177,0,38.345-17.167,38.345-38.345   v-32.276H0V385.379z" data-original="#C8414B" class="" data-old_color="#C8414B"/>
	<path style="fill:#D93A2C" d="M473.655,88.276H38.345C17.167,88.276,0,105.443,0,126.621v32.276h512v-32.276   C512,105.443,494.833,88.276,473.655,88.276z" data-original="#C8414B" class="" data-old_color="#C8414B"/>
</g><rect y="158.9" style="fill:#FBA134" width="512" height="194.21" data-original="#FFD250" class="" data-old_color="#FFD250"/><path style="fill:#D93A2C" d="M216.276,256l7.485-33.681c0.69-3.102-1.671-6.044-4.849-6.044h-5.272  c-3.177,0-5.537,2.943-4.849,6.044L216.276,256z" data-original="#C8414B" class="" data-old_color="#C8414B"/><rect x="207.45" y="238.34" style="fill:#FFFFFF" width="17.655" height="75.03" data-original="#F5F5F5" class="" data-old_color="#F5F5F5"/><rect x="203.03" y="229.52" style="fill:#FBA134" width="26.483" height="8.828" data-original="#FAB446" class="" data-old_color="#FAB446"/><g>
	<rect x="185.38" y="256" style="fill:#D93A2C" width="44.14" height="8.828" data-original="#C8414B" class="" data-old_color="#C8414B"/>
	<polygon style="fill:#D93A2C" points="229.517,291.31 203.034,282.483 203.034,273.655 229.517,282.483  " data-original="#C8414B" class="" data-old_color="#C8414B"/>
	<path style="fill:#D93A2C" d="M83.862,256l7.485-33.681c0.69-3.102-1.671-6.044-4.849-6.044h-5.272   c-3.177,0-5.537,2.943-4.849,6.044L83.862,256z" data-original="#C8414B" class="" data-old_color="#C8414B"/>
</g><path style="fill:#FFFFFF" d="M114.759,229.517c-4.875,0-8.828,3.953-8.828,8.828v57.379c0,10.725,10.01,30.897,44.138,30.897  s44.138-20.171,44.138-30.897v-57.379c0-4.875-3.953-8.828-8.828-8.828H114.759z" data-original="#F5F5F5" class="" data-old_color="#F5F5F5"/><g>
	<path style="fill:#D93A2C" d="M150.069,273.655h-44.138v-35.31c0-4.875,3.953-8.828,8.828-8.828h35.31V273.655z" data-original="#C8414B" class="" data-old_color="#C8414B"/>
	<path style="fill:#D93A2C" d="M150.069,273.655h44.138v22.069c0,12.189-9.88,22.069-22.069,22.069l0,0   c-12.189,0-22.069-9.88-22.069-22.069V273.655z" data-original="#C8414B" class="" data-old_color="#C8414B"/>
</g><path style="fill:#FBA134" d="M105.931,273.655h44.138v22.069c0,12.189-9.88,22.069-22.069,22.069l0,0  c-12.189,0-22.069-9.88-22.069-22.069V273.655z" data-original="#FAB446" class="" data-old_color="#FAB446"/><g>
	<path style="fill:#D93A2C" d="M141.241,313.28v-39.625h-8.828v43.693C135.697,316.682,138.664,315.228,141.241,313.28z" data-original="#C8414B" class="" data-old_color="#C8414B"/>
	<path style="fill:#D93A2C" d="M123.586,317.348v-43.693h-8.828v39.625C117.336,315.228,120.303,316.682,123.586,317.348z" data-original="#C8414B" class="" data-old_color="#C8414B"/>
</g><rect x="114.76" y="256" style="fill:#FBA134" width="26.483" height="8.828" data-original="#FFB441" class="" data-old_color="#FFB441"/><g>
	<rect x="114.76" y="238.34" style="fill:#FBA134" width="26.483" height="8.828" data-original="#FAB446" class="" data-old_color="#FAB446"/>
	<rect x="119.17" y="243.59" style="fill:#FBA134" width="17.655" height="15.992" data-original="#FAB446" class="" data-old_color="#FAB446"/>
</g><rect x="75.03" y="238.34" style="fill:#FFFFFF" width="17.655" height="75.03" data-original="#F5F5F5" class="" data-old_color="#F5F5F5"/><g>
	<rect x="70.62" y="308.97" style="fill:#FBA134" width="26.483" height="8.828" data-original="#FAB446" class="" data-old_color="#FAB446"/>
	<rect x="70.62" y="229.52" style="fill:#FBA134" width="26.483" height="8.828" data-original="#FAB446" class="" data-old_color="#FAB446"/>
</g><rect x="66.21" y="317.79" style="fill:#1B1B1B" width="35.31" height="8.828" data-original="#5064AA" class="" data-old_color="#5064AA"/><rect x="207.45" y="308.97" style="fill:#FBA134" width="26.483" height="8.828" data-original="#FAB446" class="" data-old_color="#FAB446"/><rect x="198.62" y="317.79" style="fill:#1B1B1B" width="35.31" height="8.828" data-original="#5064AA" class="" data-old_color="#5064AA"/><rect x="123.59" y="220.69" style="fill:#FBA134" width="52.966" height="8.828" data-original="#FAB446" class="" data-old_color="#FAB446"/><rect x="145.66" y="194.21" style="fill:#FBA134" width="8.828" height="26.483" data-original="#FFB441" class="" data-old_color="#FFB441"/><g>
	<path style="fill:#FFFFFF" d="M141.241,207.448c-7.302,0-13.241-5.94-13.241-13.241c0-7.302,5.94-13.241,13.241-13.241   c7.302,0,13.241,5.94,13.241,13.241C154.483,201.508,148.543,207.448,141.241,207.448z M141.241,189.793   c-2.435,0-4.414,1.978-4.414,4.414c0,2.435,1.978,4.414,4.414,4.414s4.414-1.978,4.414-4.414   C145.655,191.772,143.677,189.793,141.241,189.793z" data-original="#F5F5F5" class="" data-old_color="#F5F5F5"/>
	<path style="fill:#FFFFFF" d="M158.897,207.448c-7.302,0-13.241-5.94-13.241-13.241c0-7.302,5.94-13.241,13.241-13.241   c7.302,0,13.241,5.94,13.241,13.241S166.198,207.448,158.897,207.448z M158.897,189.793c-2.435,0-4.414,1.978-4.414,4.414   c0,2.435,1.978,4.414,4.414,4.414c2.435,0,4.414-1.978,4.414-4.414C163.31,191.772,161.332,189.793,158.897,189.793z" data-original="#F5F5F5" class="" data-old_color="#F5F5F5"/>
	<path style="fill:#FFFFFF" d="M176.552,216.276c-7.302,0-13.241-5.94-13.241-13.241c0-7.302,5.94-13.241,13.241-13.241   c7.302,0,13.241,5.94,13.241,13.241S183.853,216.276,176.552,216.276z M176.552,198.621c-2.435,0-4.414,1.978-4.414,4.414   c0,2.435,1.978,4.414,4.414,4.414c2.435,0,4.414-1.978,4.414-4.414S178.987,198.621,176.552,198.621z" data-original="#F5F5F5" class="" data-old_color="#F5F5F5"/>
	<path style="fill:#FFFFFF" d="M123.586,216.276c-7.302,0-13.241-5.94-13.241-13.241c0-7.302,5.94-13.241,13.241-13.241   c7.302,0,13.241,5.94,13.241,13.241C136.828,210.336,130.888,216.276,123.586,216.276z M123.586,198.621   c-2.435,0-4.414,1.978-4.414,4.414c0,2.435,1.978,4.414,4.414,4.414S128,205.47,128,203.034   C128,200.599,126.022,198.621,123.586,198.621z" data-original="#F5F5F5" class="" data-old_color="#F5F5F5"/>
</g><path style="fill:#FBA134" d="M176.552,291.31v4.414c0,2.434-1.98,4.414-4.414,4.414s-4.414-1.98-4.414-4.414v-4.414H176.552   M185.379,282.483h-26.483v13.241c0,7.302,5.94,13.241,13.241,13.241c7.302,0,13.241-5.94,13.241-13.241v-13.241H185.379z" data-original="#FAB446" class="" data-old_color="#FAB446"/><path style="fill:#1B1B1B" d="M172.138,264.828L172.138,264.828c-4.875,0-8.828-3.953-8.828-8.828v-8.828  c0-4.875,3.953-8.828,8.828-8.828l0,0c4.875,0,8.828,3.953,8.828,8.828V256C180.966,260.875,177.013,264.828,172.138,264.828z" data-original="#FFA0D2" class="active-path" data-old_color="#FFA0D2"/><circle style="fill:#1B1B1B" cx="150.07" cy="273.65" r="13.241" data-original="#5064AA" class="" data-old_color="#5064AA"/><rect x="145.66" y="176.55" style="fill:#FBA134" width="8.828" height="26.483" data-original="#FAB446" class="" data-old_color="#FAB446"/><path style="fill:#D93A2C" d="M123.586,220.69l-8.828-8.828l5.171-5.171c7.993-7.993,18.835-12.484,30.14-12.484l0,0  c11.305,0,22.146,4.491,30.14,12.484l5.171,5.171l-8.828,8.828H123.586z" data-original="#C8414B" class="" data-old_color="#C8414B"/><g>
	<circle style="fill:#FBA134" cx="150.07" cy="211.86" r="4.414" data-original="#FFD250" class="" data-old_color="#FFD250"/>
	<circle style="fill:#FBA134" cx="132.41" cy="211.86" r="4.414" data-original="#FFD250" class="" data-old_color="#FFD250"/>
	<circle style="fill:#FBA134" cx="167.72" cy="211.86" r="4.414" data-original="#FFD250" class="" data-old_color="#FFD250"/>
</g><g>
	<rect x="70.62" y="256" style="fill:#D93A2C" width="44.14" height="8.828" data-original="#C8414B" class="" data-old_color="#C8414B"/>
	<polygon style="fill:#D93A2C" points="70.621,291.31 97.103,282.483 97.103,273.655 70.621,282.483  " data-original="#C8414B" class="" data-old_color="#C8414B"/>
</g></g> </svg>
